M48
;GenerationSoftware,Autodesk,EAGLE,9.0.0*%
;CreationDate,2018-05-10T16:37:33Z*%
FMAT,2
ICI,OFF
METRIC,TZ,000.000
T10C0.350
T9C0.600
T8C0.610
T7C0.700
T6C0.813
T5C0.914
T4C0.950
T3C1.016
T2C2.300
T1C3.200
%
G90
M71
T1
X15240Y50800
X13970Y2540
X66040Y35560
X66040Y7620
T2
X3810Y44120
X3810Y32080
T3
X43180Y40640
X48260Y43180
X45720Y43180
X43180Y43180
X48260Y40640
X45720Y40640
T4
X8520Y36850
X8520Y39350
X6520Y39350
X6520Y36850
T5
X69850Y26670
X67310Y24130
X69850Y24130
X67310Y21590
X69850Y21590
X67310Y19050
X69850Y19050
X67310Y16510
X69850Y16510
X67310Y26670
T6
X31750Y25844
X31750Y30670
T7
X35763Y49157
X45755Y4128
X47755Y4128
X24360Y24422
X24360Y26422
X24360Y28422
X53125Y48960
X51125Y48960
X37763Y49157
X20718Y4128
X22717Y4128
X24717Y4128
X26717Y4128
X28717Y4128
X30717Y4128
T8
X1905Y25781
X4445Y23241
X1905Y20701
T9
X2540Y8752
X4940Y10752
X10440Y10752
T10
X38735Y46355
X46037Y19050
X45402Y20955
X45402Y24130
X16828Y28257
X42228Y27305
X64452Y27305
X66040Y17780
X59690Y22860
X41593Y28257
X65723Y28257
X66358Y20320
X42863Y25400
X63182Y26352
X63182Y22860
X44767Y25400
X49847Y35878
X1905Y29210
X18098Y32385
X14605Y32385
X32702Y47307
X53657Y45085
X26670Y23177
X53657Y16510
X30480Y32702
X6985Y28575
X16510Y32067
X19368Y15875
X25717Y14287
X30797Y51117
X52705Y41910
X50165Y22542
X54292Y51117
X37465Y13970
X59690Y15240
X12700Y21590
X19050Y18415
X46355Y39053
X14922Y37465
X10795Y37465
X48260Y37148
X16510Y41910
X48260Y35878
X16510Y39370
X18415Y28575
X40640Y38100
X41910Y41910
X27622Y36195
X43498Y32067
X26035Y34290
X36513Y24447
X26035Y16510
X38418Y8255
X44132Y6350
X33020Y7302
X30797Y17780
X20638Y19050
X23812Y7620
X33338Y15240
X54610Y15240
X19685Y11747
X48577Y20003
X40005Y41910
X26987Y9208
X48260Y17780
X58420Y17780
M30