G04 EAGLE Gerber X2 export*
G75*
%MOMM*%
%FSLAX34Y34*%
%LPD*%
%AMOC8*
5,1,8,0,0,1.08239X$1,22.5*%
G01*
%ADD10C,3.403200*%
%ADD11P,1.798066X8X292.500000*%
%ADD12C,3.519200*%
%ADD13C,1.311200*%
%ADD14C,1.320800*%
%ADD15R,1.303200X1.203200*%
%ADD16R,2.603200X1.803200*%
%ADD17R,1.203200X1.303200*%
%ADD18R,1.403200X1.603200*%
%ADD19R,1.403200X1.203200*%
%ADD20C,1.727200*%
%ADD21P,1.869504X8X202.500000*%
%ADD22C,1.524000*%
%ADD23R,1.503200X1.803200*%
%ADD24R,1.803200X1.503200*%
%ADD25R,1.411200X1.411200*%
%ADD26C,1.411200*%
%ADD27P,1.759533X8X292.500000*%
%ADD28C,0.959600*%


D10*
X152400Y508000D03*
X139700Y25400D03*
X660400Y355600D03*
X660400Y76200D03*
D11*
X85200Y368500D03*
X85200Y393500D03*
X65200Y393500D03*
X65200Y368500D03*
D12*
X38100Y441200D03*
X38100Y320800D03*
D13*
X25400Y93060D02*
X25400Y81980D01*
X49400Y101980D02*
X49400Y113060D01*
X104400Y113060D02*
X104400Y101980D01*
D14*
X19050Y257810D03*
X44450Y232410D03*
X19050Y207010D03*
D15*
X31750Y150250D03*
X31750Y167250D03*
X66675Y150250D03*
X66675Y167250D03*
D16*
X95250Y150100D03*
X95250Y180100D03*
D17*
X135500Y177800D03*
X118500Y177800D03*
D15*
X206375Y284725D03*
X206375Y267725D03*
D18*
X109650Y393700D03*
X131650Y393700D03*
X109650Y419100D03*
X131650Y419100D03*
D19*
X109650Y349250D03*
X131650Y349250D03*
D17*
X468875Y457200D03*
X451875Y457200D03*
D20*
X482600Y431800D03*
D21*
X457200Y431800D03*
X431800Y431800D03*
X482600Y406400D03*
X457200Y406400D03*
X431800Y406400D03*
D22*
X317500Y258445D03*
X317500Y306705D03*
D23*
X256700Y307975D03*
X276700Y307975D03*
D24*
X317500Y218600D03*
X317500Y238600D03*
D17*
X414075Y83525D03*
X397075Y83525D03*
D25*
X457550Y41275D03*
D26*
X477550Y41275D03*
D16*
X312125Y71550D03*
X312125Y101550D03*
D17*
X223575Y137500D03*
X206575Y137500D03*
D25*
X243600Y244225D03*
D26*
X243600Y264225D03*
X243600Y284225D03*
D15*
X285525Y223150D03*
X285525Y240150D03*
D25*
X531250Y489600D03*
D26*
X511250Y489600D03*
D15*
X285525Y63150D03*
X285525Y80150D03*
X284700Y98075D03*
X284700Y115075D03*
D25*
X377625Y491575D03*
D26*
X357625Y491575D03*
D17*
X375025Y464100D03*
X358025Y464100D03*
D19*
X110325Y324250D03*
X132325Y324250D03*
D27*
X673100Y266700D03*
X698500Y266700D03*
X673100Y241300D03*
X698500Y241300D03*
X673100Y215900D03*
X698500Y215900D03*
X673100Y190500D03*
X698500Y190500D03*
X673100Y165100D03*
X698500Y165100D03*
D25*
X207175Y41275D03*
D26*
X227175Y41275D03*
X247175Y41275D03*
X267175Y41275D03*
X287175Y41275D03*
X307175Y41275D03*
D28*
X19050Y292100D03*
X180975Y323850D03*
X146050Y323850D03*
X327025Y473075D03*
X536575Y450850D03*
X536575Y165100D03*
X304800Y327025D03*
X69850Y285750D03*
X165100Y320675D03*
X193675Y158750D03*
X257175Y142875D03*
X307975Y511175D03*
X527050Y419100D03*
X501650Y225425D03*
X596900Y228600D03*
X542925Y511175D03*
X374650Y139700D03*
X596900Y152400D03*
X127000Y215900D03*
X190500Y184150D03*
X463550Y390525D03*
X149225Y374650D03*
X107950Y374650D03*
X482600Y371475D03*
X165100Y419100D03*
X482600Y358775D03*
X165100Y393700D03*
X184150Y285750D03*
X406400Y381000D03*
X419100Y419100D03*
X276225Y361950D03*
X434975Y320675D03*
X260350Y342900D03*
X365125Y244475D03*
X384175Y82550D03*
X441325Y63500D03*
X330200Y73025D03*
X307975Y177800D03*
X206375Y190500D03*
X238125Y76200D03*
X333375Y152400D03*
X546100Y152400D03*
X196850Y117475D03*
X260350Y165100D03*
X485775Y200025D03*
X400050Y419100D03*
X269875Y92075D03*
X482600Y177800D03*
X584200Y177800D03*
X387350Y463550D03*
X460375Y190500D03*
X454025Y209550D03*
X454025Y241300D03*
X168275Y282575D03*
X422275Y273050D03*
X644525Y273050D03*
X660400Y177800D03*
X266700Y231775D03*
X415925Y282575D03*
X657225Y282575D03*
X663575Y203200D03*
X428625Y254000D03*
X631825Y263525D03*
X631825Y228600D03*
X447675Y254000D03*
X498475Y358775D03*
M02*
