G04 EAGLE Gerber X2 export*
G75*
%MOMM*%
%FSLAX34Y34*%
%LPD*%
%AMOC8*
5,1,8,0,0,1.08239X$1,22.5*%
G01*
%ADD10C,3.403200*%
%ADD11P,1.798066X8X292.500000*%
%ADD12C,3.519200*%
%ADD13C,1.311200*%
%ADD14C,1.320800*%
%ADD15R,0.803200X2.403200*%
%ADD16R,1.403200X0.753200*%
%ADD17R,1.803200X2.603200*%
%ADD18R,2.603200X1.803200*%
%ADD19R,1.303200X1.203200*%
%ADD20R,1.203200X1.303200*%
%ADD21R,1.503200X1.803200*%
%ADD22R,1.803200X1.503200*%
%ADD23R,2.103200X3.603200*%
%ADD24C,0.522559*%
%ADD25C,1.203200*%
%ADD26C,1.727200*%
%ADD27P,1.869504X8X202.500000*%
%ADD28R,1.403200X1.403200*%
%ADD29C,1.524000*%
%ADD30R,1.411200X1.411200*%
%ADD31C,1.411200*%
%ADD32R,1.503200X1.503200*%
%ADD33R,2.203200X1.503200*%
%ADD34P,1.759533X8X292.500000*%
%ADD35C,0.959600*%


D10*
X152400Y508000D03*
X139700Y25400D03*
X660400Y355600D03*
X660400Y76200D03*
D11*
X85200Y368500D03*
X85200Y393500D03*
X65200Y393500D03*
X65200Y368500D03*
D12*
X38100Y441200D03*
X38100Y320800D03*
D13*
X25400Y93060D02*
X25400Y81980D01*
X49400Y101980D02*
X49400Y113060D01*
X104400Y113060D02*
X104400Y101980D01*
D14*
X19050Y257810D03*
X44450Y232410D03*
X19050Y207010D03*
D15*
X171450Y208950D03*
X171450Y260950D03*
X158750Y208950D03*
X184150Y208950D03*
X196850Y208950D03*
X158750Y260950D03*
X184150Y260950D03*
X196850Y260950D03*
D16*
X94949Y263500D03*
X94949Y254000D03*
X94949Y244500D03*
X120951Y244500D03*
X120951Y263500D03*
D17*
X103900Y215900D03*
X73900Y215900D03*
X521575Y384175D03*
X551575Y384175D03*
D18*
X206375Y348375D03*
X206375Y318375D03*
D19*
X177800Y112150D03*
X177800Y129150D03*
D20*
X173600Y177800D03*
X156600Y177800D03*
D21*
X175100Y152400D03*
X155100Y152400D03*
D22*
X139700Y282100D03*
X139700Y302100D03*
X69850Y270350D03*
X69850Y250350D03*
X374650Y124300D03*
X374650Y104300D03*
X549275Y337025D03*
X549275Y317025D03*
D21*
X517050Y225425D03*
X537050Y225425D03*
D23*
X165550Y349250D03*
X126550Y349250D03*
D20*
X124850Y393700D03*
X141850Y393700D03*
X124850Y419100D03*
X141850Y419100D03*
D24*
X490197Y345978D02*
X490197Y335172D01*
X490197Y345978D02*
X491503Y345978D01*
X491503Y335172D01*
X490197Y335172D01*
X490197Y340397D02*
X491503Y340397D01*
X491503Y345622D02*
X490197Y345622D01*
X482197Y345978D02*
X482197Y335172D01*
X482197Y345978D02*
X483503Y345978D01*
X483503Y335172D01*
X482197Y335172D01*
X482197Y340397D02*
X483503Y340397D01*
X483503Y345622D02*
X482197Y345622D01*
X474197Y345978D02*
X474197Y335172D01*
X474197Y345978D02*
X475503Y345978D01*
X475503Y335172D01*
X474197Y335172D01*
X474197Y340397D02*
X475503Y340397D01*
X475503Y345622D02*
X474197Y345622D01*
X466197Y345978D02*
X466197Y335172D01*
X466197Y345978D02*
X467503Y345978D01*
X467503Y335172D01*
X466197Y335172D01*
X466197Y340397D02*
X467503Y340397D01*
X467503Y345622D02*
X466197Y345622D01*
X458197Y345978D02*
X458197Y335172D01*
X458197Y345978D02*
X459503Y345978D01*
X459503Y335172D01*
X458197Y335172D01*
X458197Y340397D02*
X459503Y340397D01*
X459503Y345622D02*
X458197Y345622D01*
X450197Y345978D02*
X450197Y335172D01*
X450197Y345978D02*
X451503Y345978D01*
X451503Y335172D01*
X450197Y335172D01*
X450197Y340397D02*
X451503Y340397D01*
X451503Y345622D02*
X450197Y345622D01*
X442197Y345978D02*
X442197Y335172D01*
X442197Y345978D02*
X443503Y345978D01*
X443503Y335172D01*
X442197Y335172D01*
X442197Y340397D02*
X443503Y340397D01*
X443503Y345622D02*
X442197Y345622D01*
X434197Y345978D02*
X434197Y335172D01*
X434197Y345978D02*
X435503Y345978D01*
X435503Y335172D01*
X434197Y335172D01*
X434197Y340397D02*
X435503Y340397D01*
X435503Y345622D02*
X434197Y345622D01*
X426197Y345978D02*
X426197Y335172D01*
X426197Y345978D02*
X427503Y345978D01*
X427503Y335172D01*
X426197Y335172D01*
X426197Y340397D02*
X427503Y340397D01*
X427503Y345622D02*
X426197Y345622D01*
X418197Y345978D02*
X418197Y335172D01*
X418197Y345978D02*
X419503Y345978D01*
X419503Y335172D01*
X418197Y335172D01*
X418197Y340397D02*
X419503Y340397D01*
X419503Y345622D02*
X418197Y345622D01*
X410197Y345978D02*
X410197Y335172D01*
X410197Y345978D02*
X411503Y345978D01*
X411503Y335172D01*
X410197Y335172D01*
X410197Y340397D02*
X411503Y340397D01*
X411503Y345622D02*
X410197Y345622D01*
X387447Y323228D02*
X387447Y321922D01*
X387447Y323228D02*
X398253Y323228D01*
X398253Y321922D01*
X387447Y321922D01*
X387447Y315228D02*
X387447Y313922D01*
X387447Y315228D02*
X398253Y315228D01*
X398253Y313922D01*
X387447Y313922D01*
X387447Y307228D02*
X387447Y305922D01*
X387447Y307228D02*
X398253Y307228D01*
X398253Y305922D01*
X387447Y305922D01*
X387447Y299228D02*
X387447Y297922D01*
X387447Y299228D02*
X398253Y299228D01*
X398253Y297922D01*
X387447Y297922D01*
X387447Y291228D02*
X387447Y289922D01*
X387447Y291228D02*
X398253Y291228D01*
X398253Y289922D01*
X387447Y289922D01*
X387447Y283228D02*
X387447Y281922D01*
X387447Y283228D02*
X398253Y283228D01*
X398253Y281922D01*
X387447Y281922D01*
X387447Y275228D02*
X387447Y273922D01*
X387447Y275228D02*
X398253Y275228D01*
X398253Y273922D01*
X387447Y273922D01*
X387447Y267228D02*
X387447Y265922D01*
X387447Y267228D02*
X398253Y267228D01*
X398253Y265922D01*
X387447Y265922D01*
X387447Y259228D02*
X387447Y257922D01*
X387447Y259228D02*
X398253Y259228D01*
X398253Y257922D01*
X387447Y257922D01*
X387447Y251228D02*
X387447Y249922D01*
X387447Y251228D02*
X398253Y251228D01*
X398253Y249922D01*
X387447Y249922D01*
X387447Y243228D02*
X387447Y241922D01*
X387447Y243228D02*
X398253Y243228D01*
X398253Y241922D01*
X387447Y241922D01*
X410197Y229978D02*
X410197Y219172D01*
X410197Y229978D02*
X411503Y229978D01*
X411503Y219172D01*
X410197Y219172D01*
X410197Y224397D02*
X411503Y224397D01*
X411503Y229622D02*
X410197Y229622D01*
X418197Y229978D02*
X418197Y219172D01*
X418197Y229978D02*
X419503Y229978D01*
X419503Y219172D01*
X418197Y219172D01*
X418197Y224397D02*
X419503Y224397D01*
X419503Y229622D02*
X418197Y229622D01*
X426197Y229978D02*
X426197Y219172D01*
X426197Y229978D02*
X427503Y229978D01*
X427503Y219172D01*
X426197Y219172D01*
X426197Y224397D02*
X427503Y224397D01*
X427503Y229622D02*
X426197Y229622D01*
X434197Y229978D02*
X434197Y219172D01*
X434197Y229978D02*
X435503Y229978D01*
X435503Y219172D01*
X434197Y219172D01*
X434197Y224397D02*
X435503Y224397D01*
X435503Y229622D02*
X434197Y229622D01*
X442197Y229978D02*
X442197Y219172D01*
X442197Y229978D02*
X443503Y229978D01*
X443503Y219172D01*
X442197Y219172D01*
X442197Y224397D02*
X443503Y224397D01*
X443503Y229622D02*
X442197Y229622D01*
X450197Y229978D02*
X450197Y219172D01*
X450197Y229978D02*
X451503Y229978D01*
X451503Y219172D01*
X450197Y219172D01*
X450197Y224397D02*
X451503Y224397D01*
X451503Y229622D02*
X450197Y229622D01*
X458197Y229978D02*
X458197Y219172D01*
X458197Y229978D02*
X459503Y229978D01*
X459503Y219172D01*
X458197Y219172D01*
X458197Y224397D02*
X459503Y224397D01*
X459503Y229622D02*
X458197Y229622D01*
X466197Y229978D02*
X466197Y219172D01*
X466197Y229978D02*
X467503Y229978D01*
X467503Y219172D01*
X466197Y219172D01*
X466197Y224397D02*
X467503Y224397D01*
X467503Y229622D02*
X466197Y229622D01*
X474197Y229978D02*
X474197Y219172D01*
X474197Y229978D02*
X475503Y229978D01*
X475503Y219172D01*
X474197Y219172D01*
X474197Y224397D02*
X475503Y224397D01*
X475503Y229622D02*
X474197Y229622D01*
X482197Y229978D02*
X482197Y219172D01*
X482197Y229978D02*
X483503Y229978D01*
X483503Y219172D01*
X482197Y219172D01*
X482197Y224397D02*
X483503Y224397D01*
X483503Y229622D02*
X482197Y229622D01*
X490197Y229978D02*
X490197Y219172D01*
X490197Y229978D02*
X491503Y229978D01*
X491503Y219172D01*
X490197Y219172D01*
X490197Y224397D02*
X491503Y224397D01*
X491503Y229622D02*
X490197Y229622D01*
X503447Y241922D02*
X503447Y243228D01*
X514253Y243228D01*
X514253Y241922D01*
X503447Y241922D01*
X503447Y249922D02*
X503447Y251228D01*
X514253Y251228D01*
X514253Y249922D01*
X503447Y249922D01*
X503447Y257922D02*
X503447Y259228D01*
X514253Y259228D01*
X514253Y257922D01*
X503447Y257922D01*
X503447Y265922D02*
X503447Y267228D01*
X514253Y267228D01*
X514253Y265922D01*
X503447Y265922D01*
X503447Y273922D02*
X503447Y275228D01*
X514253Y275228D01*
X514253Y273922D01*
X503447Y273922D01*
X503447Y281922D02*
X503447Y283228D01*
X514253Y283228D01*
X514253Y281922D01*
X503447Y281922D01*
X503447Y289922D02*
X503447Y291228D01*
X514253Y291228D01*
X514253Y289922D01*
X503447Y289922D01*
X503447Y297922D02*
X503447Y299228D01*
X514253Y299228D01*
X514253Y297922D01*
X503447Y297922D01*
X503447Y305922D02*
X503447Y307228D01*
X514253Y307228D01*
X514253Y305922D01*
X503447Y305922D01*
X503447Y313922D02*
X503447Y315228D01*
X514253Y315228D01*
X514253Y313922D01*
X503447Y313922D01*
X503447Y321922D02*
X503447Y323228D01*
X514253Y323228D01*
X514253Y321922D01*
X503447Y321922D01*
D25*
X450850Y282575D03*
D21*
X444025Y374650D03*
X464025Y374650D03*
D20*
X518550Y203200D03*
X535550Y203200D03*
D26*
X482600Y431800D03*
D27*
X457200Y431800D03*
X431800Y431800D03*
X482600Y406400D03*
X457200Y406400D03*
X431800Y406400D03*
D28*
X225425Y472100D03*
X225425Y493100D03*
X266700Y472100D03*
X266700Y493100D03*
X307975Y472100D03*
X307975Y493100D03*
D19*
X206375Y493150D03*
X206375Y510150D03*
X247650Y493150D03*
X247650Y510150D03*
X288925Y493150D03*
X288925Y510150D03*
D29*
X317500Y258445D03*
X317500Y306705D03*
D15*
X407225Y86100D03*
X407225Y138100D03*
X394525Y86100D03*
X419925Y86100D03*
X432625Y86100D03*
X394525Y138100D03*
X419925Y138100D03*
X432625Y138100D03*
D19*
X372450Y63300D03*
X372450Y46300D03*
X392725Y46300D03*
X392725Y63300D03*
X424475Y46300D03*
X424475Y63300D03*
X475275Y103450D03*
X475275Y120450D03*
X451825Y120450D03*
X451825Y103450D03*
X392725Y163775D03*
X392725Y180775D03*
X413725Y180775D03*
X413725Y163775D03*
D30*
X457550Y41275D03*
D31*
X477550Y41275D03*
D15*
X223075Y111500D03*
X223075Y163500D03*
X210375Y111500D03*
X235775Y111500D03*
X248475Y111500D03*
X210375Y163500D03*
X235775Y163500D03*
X248475Y163500D03*
D20*
X255325Y218100D03*
X238325Y218100D03*
X236275Y192700D03*
X219275Y192700D03*
X268025Y192700D03*
X251025Y192700D03*
D32*
X296475Y151800D03*
D33*
X307975Y203800D03*
D32*
X319475Y151800D03*
D30*
X243600Y244225D03*
D31*
X243600Y264225D03*
X243600Y284225D03*
D30*
X531250Y489600D03*
D31*
X511250Y489600D03*
D18*
X296050Y90750D03*
X296050Y120750D03*
D30*
X377625Y491575D03*
D31*
X357625Y491575D03*
D34*
X673100Y266700D03*
X698500Y266700D03*
X673100Y241300D03*
X698500Y241300D03*
X673100Y215900D03*
X698500Y215900D03*
X673100Y190500D03*
X698500Y190500D03*
X673100Y165100D03*
X698500Y165100D03*
D22*
X272100Y144450D03*
X272100Y124450D03*
X385950Y207975D03*
X385950Y227975D03*
D21*
X509600Y340300D03*
X529600Y340300D03*
D30*
X207175Y41275D03*
D31*
X227175Y41275D03*
X247175Y41275D03*
X267175Y41275D03*
X287175Y41275D03*
X307175Y41275D03*
D21*
X365600Y342900D03*
X345600Y342900D03*
D35*
X19050Y292100D03*
X180975Y323850D03*
X146050Y323850D03*
X327025Y473075D03*
X536575Y450850D03*
X536575Y165100D03*
X304800Y327025D03*
X69850Y285750D03*
X165100Y320675D03*
X193675Y158750D03*
X257175Y142875D03*
X307975Y511175D03*
X527050Y419100D03*
X501650Y225425D03*
X596900Y228600D03*
X542925Y511175D03*
X374650Y139700D03*
X596900Y152400D03*
X127000Y215900D03*
X190500Y184150D03*
X463550Y390525D03*
X149225Y374650D03*
X107950Y374650D03*
X482600Y371475D03*
X165100Y419100D03*
X482600Y358775D03*
X165100Y393700D03*
X184150Y285750D03*
X406400Y381000D03*
X419100Y419100D03*
X276225Y361950D03*
X434975Y320675D03*
X260350Y342900D03*
X365125Y244475D03*
X384175Y82550D03*
X441325Y63500D03*
X330200Y73025D03*
X307975Y177800D03*
X206375Y190500D03*
X238125Y76200D03*
X333375Y152400D03*
X546100Y152400D03*
X196850Y117475D03*
X260350Y165100D03*
X485775Y200025D03*
X400050Y419100D03*
X269875Y92075D03*
X482600Y177800D03*
X584200Y177800D03*
X387350Y463550D03*
X460375Y190500D03*
X454025Y209550D03*
X454025Y241300D03*
X168275Y282575D03*
X422275Y273050D03*
X644525Y273050D03*
X660400Y177800D03*
X266700Y231775D03*
X415925Y282575D03*
X657225Y282575D03*
X663575Y203200D03*
X428625Y254000D03*
X631825Y263525D03*
X631825Y228600D03*
X447675Y254000D03*
X498475Y358775D03*
M02*
